<?xml version="1.0" encoding="UTF-8" standalone="no"?>
<svg
   xmlns:dc="http://purl.org/dc/elements/1.1/"
   xmlns:cc="http://creativecommons.org/ns#"
   xmlns:rdf="http://www.w3.org/1999/02/22-rdf-syntax-ns#"
   xmlns:svg="http://www.w3.org/2000/svg"
   xmlns="http://www.w3.org/2000/svg"
   xmlns:sodipodi="http://sodipodi.sourceforge.net/DTD/sodipodi-0.dtd"
   xmlns:inkscape="http://www.inkscape.org/namespaces/inkscape"
   version="1.1"
   id="svg8084"
   width="801"
   height="558"
   viewBox="0 0 801 558"
   sodipodi:docname="logo.svg"
   inkscape:version="1.0.2-2 (e86c870879, 2021-01-15)">
  <metadata
     id="metadata8090">
    <rdf:RDF>
      <cc:Work
         rdf:about="">
        <dc:format>image/svg+xml</dc:format>
        <dc:type
           rdf:resource="http://purl.org/dc/dcmitype/StillImage" />
        <dc:title></dc:title>
      </cc:Work>
    </rdf:RDF>
  </metadata>
  <defs
     id="defs8088" />
  <sodipodi:namedview
     pagecolor="#ffffff"
     bordercolor="#666666"
     borderopacity="1"
     objecttolerance="10"
     gridtolerance="10"
     guidetolerance="10"
     inkscape:pageopacity="0"
     inkscape:pageshadow="2"
     inkscape:window-width="1304"
     inkscape:window-height="745"
     id="namedview8086"
     showgrid="false"
     inkscape:zoom="0.73245112"
     inkscape:cx="399.35515"
     inkscape:cy="276.3934"
     inkscape:window-x="54"
     inkscape:window-y="-8"
     inkscape:window-maximized="1"
     inkscape:current-layer="g8092"
     inkscape:document-rotation="0" />
  <g
     inkscape:groupmode="layer"
     inkscape:label="Image"
     id="g8092">
    <path
       style="fill:#ffffff;stroke-width:1.07803"
       d="m 313.64018,532.68636 c -7.54505,-7.54506 -9.704,-13.53744 -14.83888,-41.18688 -6.54422,-35.23819 -10.36921,-69.80262 -15.1817,-137.18924 -0.4685,-6.56001 -1.09116,-9.43278 -2.04453,-9.43278 -0.75399,0 -6.99106,0.96081 -13.86018,2.13515 -13.55927,2.31807 -17.17207,1.8877 -18.46948,-2.20011 -1.91019,-6.01847 10.17348,-10.06212 52.8442,-17.68366 39.15868,-6.99423 45.81639,-7.61827 45.81639,-4.29441 0,2.46547 -11.32755,7.3673 -27.75934,12.01247 -15.81108,4.46968 -15.74662,4.40567 -13.23878,13.15 1.46288,5.10076 3.30167,18.78728 12.03663,89.59136 9.52112,77.17642 9.83775,86.56396 3.16085,93.71162 -3.53117,3.78012 -5.71402,4.13763 -8.46518,1.38648 z m -8.11237,-131.4817 c -0.27116,-1.03761 -1.82043,-0.30933 -1.82043,1.76589 0,2.0752 1.4286,4.37225 1.69976,3.33464 0.27115,-1.03761 0.39182,-4.06293 0.12067,-5.10053 z m -10.86819,-24.91173 -2.47222,-8.24581 -0.68552,6.74693 c -0.37045,3.64606 -0.37435,6.46777 0.39647,7.90807 1.81588,3.39298 5.34898,1.46958 2.76127,-6.40919 z m 6.02626,-21.84042 c 0,-1.88156 -0.57883,-4.10741 -1.20602,-3.7198 -0.59292,0.36645 -1.59001,3.18822 -1.59001,4.96698 0,1.88156 0.87749,3.21145 1.50468,2.82383 0.59292,-0.36644 1.29135,-2.29225 1.29135,-4.07101 z m -29.67954,130.92852 c -2.47109,-2.47108 0.62764,-8.84158 3.24438,-6.66988 1.97068,1.63552 1.79292,5.93948 -0.27812,6.73422 -2.11142,0.81023 -2.09126,0.81067 -2.96626,-0.0643 z m 60.04099,-3.05442 c -0.94362,-2.45901 0.37713,-4.85114 2.67841,-4.85114 1.13185,0 2.66181,0.72767 3.39993,1.61705 1.687,2.03271 -0.2883,4.85114 -3.39993,4.85114 -1.13184,0 -2.33713,-0.72767 -2.67841,-1.61705 z m 41.99485,-5.5163 c -0.3679,-0.95876 -0.23139,-2.97025 0.30335,-4.46998 2.07375,-5.81595 7.97948,-6.07498 7.97948,-0.34999 0,4.94192 -6.73261,8.85977 -8.28283,4.81997 z m 135.83411,-3.0799 c -3.22213,-2.27966 -6.33506,-11.09965 -10.66336,-30.21298 -5.38909,-23.79701 -14.47486,-89.30458 -14.47486,-104.36168 v -9.08124 l -7.0969,1.96793 c -16.201,4.4924 -24.24773,3.58813 -22.70671,-2.55172 0.85758,-3.41684 8.4231,-6.53372 20.91178,-8.61537 l 8.35282,-1.39228 0.72034,-6.49824 c 1.4451,-13.03706 5.21671,-23.40838 9.04717,-24.87829 3.51029,-1.34702 6.51768,0.82072 11.01264,7.93795 2.53521,4.01436 4.90333,9.13549 5.2622,11.38029 0.35899,2.2448 1.01863,4.30759 1.46581,4.584 0.44727,0.27641 4.58465,-0.46203 9.19411,-1.64094 10.53938,-2.69551 16.74475,-2.75473 19.91201,-0.19003 5.60728,4.54053 -1.63031,10.06583 -15.11002,11.53525 -3.85397,0.42011 -8.64626,1.4393 -10.64967,2.26485 l -3.64257,1.50102 0.68121,6.19565 c 0.37461,3.40761 1.64917,22.447 2.83232,42.30975 1.18313,19.86275 2.96243,46.05895 3.95411,58.21376 2.36769,29.02193 2.4494,38.25946 0.3564,40.31402 -2.57596,2.52878 -6.74029,3.07087 -9.35883,1.2183 z m -3.5796,-125.94871 c -0.29904,-0.74115 -1.20746,-0.0744 -1.20746,1.40789 0,1.48229 0.72741,2.26969 1.02645,1.52855 0.29905,-0.74115 0.48006,-2.19529 0.18101,-2.93644 z M 492.0275,337.11803 c -0.27123,-1.0376 -1.03613,0.35438 -1.03613,2.4296 0,2.07522 0.94591,3.88956 1.21714,2.85196 0.27113,-1.03761 0.0901,-4.24395 -0.18101,-5.28156 z m -101.04198,134.3779 c -1.73655,-2.09241 -0.51571,-4.80079 2.16402,-4.80079 1.59109,0 2.1899,0.7054 2.1899,2.57974 0,3.0773 -2.55964,4.38303 -4.35392,2.22105 z m 47.96312,0.14629 c -2.90124,-2.12144 -3.55469,-16.17604 -1.13146,-24.33592 2.19376,-7.38723 2.17305,-11.11936 -0.0857,-15.43125 l -1.80728,-3.45007 -1.48069,7.97345 c -1.85952,10.01332 -3.4084,12.99966 -9.20658,17.75082 -5.86358,4.80479 -9.24645,6.07769 -16.15194,6.07769 -7.74222,0 -13.88978,-3.27855 -19.41662,-10.35509 l -4.55506,-5.83227 -1.12357,6.20712 c -0.61798,3.41393 -1.42526,6.69424 -1.79397,7.2896 -0.39503,0.63785 0.7275,1.08063 2.73302,1.07803 2.91279,-0.005 3.4034,0.38406 3.4034,2.69065 0,2.15626 -0.60873,2.76482 -3.04477,3.04393 -2.30425,0.26401 -3.18147,-0.17392 -3.60686,-1.80062 -0.52512,-2.00807 -0.87723,-1.90892 -5.35258,1.5072 -5.96974,4.55679 -11.83327,6.3884 -17.26819,5.39412 -5.48495,-1.00345 -17.92081,-13.33824 -19.7281,-19.56775 -1.93531,-6.67088 -2.73636,-39.70041 -1.14694,-47.29265 2.20683,-10.54151 10.64192,-16.89066 15.42225,-11.60845 2.49613,2.75818 3.77115,9.76475 4.55789,25.04685 1.10653,21.4937 4.59721,37.38796 9.10754,41.46975 1.92069,1.7382 2.11412,1.69791 3.73668,-0.77843 3.39008,-5.17392 6.01089,-21.92 7.68379,-49.09691 1.69188,-27.48522 2.58233,-33.43393 5.43102,-36.28264 3.91277,-3.91275 10.06628,-2.76857 15.12339,2.81204 5.72949,6.32257 7.06299,13.78266 7.8397,43.85795 l 0.64977,25.15948 3.0247,2.59986 c 1.66359,1.42993 4.38675,2.59988 6.05147,2.59988 2.6574,0 3.38019,-0.78755 5.92289,-6.45341 1.59285,-3.54938 3.46273,-9.15484 4.15528,-12.45656 1.5551,-7.41394 -0.12392,-14.74181 -6.74892,-29.45505 -5.48706,-12.18598 -6.88149,-22.63658 -3.73185,-27.96848 4.67297,-7.9107 15.34692,-8.72572 23.0566,-1.76047 4.02499,3.63632 5.78032,7.45937 15.22548,33.16049 1.26798,3.45019 2.53381,6.04471 2.81291,5.7656 0.2791,-0.2791 1.6937,-9.16592 3.14355,-19.74848 3.58003,-26.12976 4.42488,-28.35865 9.83132,-25.93535 3.8101,1.70774 5.71164,7.16418 5.71164,16.38913 0,7.14499 -0.81952,10.7834 -5.92918,26.32458 -3.26105,9.91854 -5.92918,18.79166 -5.92918,19.71808 0,0.9264 3.40206,6.38142 7.56014,12.12226 12.18338,16.82108 14.25751,22.49966 9.44852,25.868 -5.78213,4.04995 -17.61613,-0.15161 -27.67773,-9.82671 l -6.04043,-5.8084 -0.2844,10.5432 c -0.24781,9.18722 -0.57513,10.78583 -2.545,12.42975 -2.73247,2.28035 -3.18824,2.30884 -5.84597,0.36545 z m -87.87093,-56.01545 c -1.01092,-0.93929 -1.15619,-0.60255 -0.63801,1.47887 0.36903,1.48229 0.92093,4.78803 1.01786,5.67741 0.0969,0.88938 0.98135,-1.22672 1.23533,-2.92947 0.25397,-1.70276 -0.89524,-3.55789 -1.61518,-4.22681 z m -5.75595,-6.33687 c -0.0261,-2.78688 -0.33229,-4.24592 -1.16508,-2.81898 -0.57584,0.98664 -1.34906,3.67256 -0.98821,4.61289 1.01419,2.64294 2.18919,2.04236 2.15329,-1.79391 z m 89.94821,-8.74778 c -1.49553,-2.87434 -5.47228,-6.21459 -5.49988,-5.85838 -0.0959,1.23798 2.9372,10.80082 4.00591,12.16609 2.28069,2.91353 4.08987,-1.31846 1.49397,-6.30771 z M 398.69,393.59006 c -0.247,-1.63054 -1.47483,0.91028 -1.47483,4.17133 0,3.26105 1.65019,5.25882 1.89719,3.6283 0.24701,-1.63052 -0.17535,-6.16911 -0.42236,-7.79963 z m 39.71666,-6.21565 c 0,-1.48229 -1.50907,-3.46305 -2.10199,-3.46305 -1.20434,0 -1.64832,4.91843 -0.53,6.03675 1.18836,1.18836 2.63199,0.24865 2.63199,-2.5737 z m -162.02804,75.79923 c -2.36532,-1.72956 -1.30471,-5.10276 1.60443,-5.10276 2.70284,0 3.80689,2.97415 1.83576,4.94528 -1.27103,1.27103 -1.87925,1.29887 -3.44019,0.15748 z m -1.22033,-16.89969 c -1.78075,-5.61066 2.95675,-10.01049 7.1354,-6.62681 2.14948,1.74054 2.35166,2.46324 1.42818,5.10501 -1.40054,4.00646 -7.43463,5.07877 -8.56358,1.5218 z m 315.34803,0.52937 c -1.93475,-2.3312 -0.94759,-5.15907 2.45112,-7.02194 2.80072,-1.53513 3.12975,-1.50359 4.57398,0.43849 2.05862,2.76823 1.98089,6.67703 -0.14909,7.49436 -2.84525,1.09186 -5.50648,0.73932 -6.87601,-0.91091 z m -24.08174,-3.42829 c -1.27424,-1.27422 -0.83979,-4.44589 0.68929,-5.03267 2.17289,-0.83383 4.20756,0.85896 3.76902,3.13581 -0.39984,2.07645 -3.12101,3.2342 -4.45831,1.89686 z m 16.65593,-4.58492 c -2.4024,-1.52246 -1.0195,-4.97496 1.99263,-4.97496 1.75191,0 2.79944,0.69478 3.0559,2.02688 0.33592,1.74429 -1.34237,3.86927 -3.0559,3.86927 -0.29646,0 -1.19305,-0.41453 -1.99263,-0.92119 z m -27.65326,-8.23781 c -17.6916,-3.09367 -21.59483,-6.23892 -25.51219,-20.558 -1.87685,-6.86073 -2.34892,-11.66954 -2.42374,-24.69062 l -0.0927,-16.17049 3.56484,-6.82818 c 6.75657,-12.94201 17.74862,-21.70331 27.2615,-21.72915 6.1588,-0.0167 8.63396,3.90539 10.72546,16.99567 1.67148,10.46115 0.57114,16.08571 -4.71651,24.10917 -3.37176,5.11637 -5.36935,7.06528 -7.99792,7.80287 -1.92698,0.54074 -3.50361,1.37988 -3.50361,1.8648 0,1.98752 4.82668,13.64234 7.24105,17.48443 3.15076,5.01426 9.63599,8.21622 16.70767,8.24916 6.44609,0.0301 11.30996,-3.92835 15.62576,-12.71694 l 3.00781,-6.12495 0.57826,-30.72393 c 0.49978,-26.55794 0.84626,-31.34944 2.55516,-35.33702 1.0874,-2.5372 2.857,-5.08405 3.93255,-5.65967 2.87738,-1.53991 9.31097,-1.27394 12.79754,0.52905 4.66292,2.41125 6.31005,8.12768 7.67268,26.62762 0.66978,9.0943 1.35994,16.67857 1.5334,16.85391 0.17356,0.17534 0.65458,-2.39454 1.06898,-5.71086 1.1025,-8.8244 5.54884,-29.4301 7.55635,-35.01889 2.32144,-6.46269 6.28569,-10.37065 12.67185,-12.49179 9.67232,-3.21261 15.42589,-0.0795 19.99566,10.88868 3.23702,7.76921 4.43611,16.50017 5.62217,40.93602 1.49598,30.82111 2.70413,33.68032 10.80781,25.57663 6.32331,-6.32328 7.08775,-10.41285 5.65946,-30.27951 -1.48488,-20.65479 -0.7294,-26.56423 4.72814,-36.98313 7.53049,-14.37652 16.55977,-20.51941 27.59698,-18.77524 8.66513,1.3693 17.68276,9.81499 23.45023,21.96305 1.4671,3.09 2.9425,5.61821 3.27873,5.61821 0.33624,0 1.70502,-3.39581 3.04178,-7.54624 2.55677,-7.93875 4.94116,-9.76906 6.1988,-4.75838 1.25083,4.98367 -0.30336,15.95393 -3.27313,23.10329 -2.4411,5.87662 -2.96825,8.96183 -3.313,19.38623 -0.60123,18.18368 -4.9416,31.30485 -11.78753,35.63361 -1.22573,0.77506 -6.19805,1.62319 -11.04963,1.88474 -11.40655,0.61492 -16.41348,-1.62349 -24.0356,-10.74552 -3.27355,-3.91769 -5.59143,-5.90623 -5.86902,-5.035 -0.25237,0.79193 -1.0057,3.22076 -1.67418,5.39739 -1.76604,5.75041 -6.75452,12.11811 -11.11388,14.18676 -4.84661,2.29986 -10.62756,2.23438 -17.67283,-0.20021 -14.96202,-5.17027 -20.64228,-14.46595 -24.79852,-40.58274 -1.47065,-9.24101 -1.52046,-12.20968 -0.34875,-20.7904 0.75172,-5.50553 1.1245,-10.25241 0.82825,-10.54863 -0.61954,-0.6195 -4.57527,14.59383 -6.88733,26.48788 -0.86436,4.44688 -2.04405,17.48189 -2.62145,28.96668 -0.5775,11.48479 -1.58805,23.01885 -2.24587,25.63123 -3.07929,12.22881 -13.17431,10.42468 -22.04006,-3.93884 -2.19293,-3.55285 -4.28204,-6.45011 -4.64243,-6.43834 -0.36039,0.0117 -2.11068,2.48033 -3.88944,5.48571 -1.77875,3.00537 -5.55424,7.63865 -8.39,10.29616 -9.61594,9.01135 -19.35176,11.30158 -35.80934,8.42372 z m 182.9114,-40.66699 c 0.81015,-1.46798 1.51183,-8.27749 1.77725,-17.24851 0.47757,-16.13689 0.84928,-15.22647 -6.06049,-14.84478 -1.9577,0.10815 -4.74712,-0.58155 -6.19868,-1.53267 -2.1316,-1.39661 -2.63935,-2.63242 -2.63935,-6.42361 0,-6.23329 1.91513,-7.85178 6.49095,-5.48554 1.87653,0.97035 3.66476,1.51126 3.97394,1.20203 1.0001,-1.00009 -3.89784,-9.87904 -7.18907,-13.03219 -2.81485,-2.69685 -3.41661,-2.88269 -5.02472,-1.55185 -4.23655,3.50614 -5.74957,9.56921 -5.75765,23.07254 -0.0118,20.03273 3.95476,33.0112 11.17897,36.57566 4.74971,2.34349 7.88581,2.10083 9.44885,-0.73108 z m -200.60882,-9.46804 c 0.73058,-7.92441 -1.31628,-11.89057 -2.66253,-5.15934 -0.8662,4.33095 0.33894,11.53315 1.56369,9.34473 0.46948,-0.83906 0.96408,-2.72249 1.09884,-4.18539 z m 18.26198,-2.13894 c 4.05728,-2.88909 5.77394,-8.47315 5.05199,-16.43421 -0.98134,-10.82305 -4.24832,-10.86987 -8.27089,-0.1185 -2.3873,6.38072 -3.05697,18.72691 -1.01561,18.72691 0.64962,0 2.55515,-0.97839 4.23451,-2.1742 z m -10.80587,-12.44287 c 0,-2.67474 -1.47939,-3.52032 -2.70102,-1.54377 -0.94188,1.52401 0.48468,5.54504 1.7006,4.79352 0.55023,-0.34005 1.00042,-1.80244 1.00042,-3.24975 z m 107.97315,-8.67277 c -0.24352,-4.77699 -0.69619,-6.72223 -1.33094,-5.71951 -1.12352,1.77475 -1.27886,10.05045 -0.26013,13.85916 1.16579,4.35875 2.0086,0.0475 1.59107,-8.13965 z m -47.63761,-1.2354 c -0.0313,-5.68508 -0.16537,-6.0253 -1.61705,-4.10609 -1.85907,2.45796 -2.02131,5.31488 -0.46678,8.21958 1.75018,3.27018 2.1207,2.53882 2.08383,-4.11349 z m 56.83905,-8.60375 c 0.17816,-1.06916 -1.72161,-0.45172 -1.74361,1.32703 -0.0216,2.76462 1.40834,3.58168 1.70373,1.90707 0.13677,-0.77535 -0.25894,-1.44086 -0.0808,-2.51005 z m 37.44269,-6.80598 -1.03969,-3.72535 -2.17749,3.80015 c -1.83922,3.2098 -2.43463,4.99432 -1.30905,7.63156 l 3.42866,3.66074 1.1538,-4.33286 c 0.49547,-1.86065 0.13986,-4.79758 -0.0562,-7.03424 z m -85.93874,3.02492 c -0.25786,-1.34097 -1.56472,-0.37701 -1.57668,1.99466 -0.0118,2.37168 1.76777,4.07222 2.03761,3.04153 0.26983,-1.03071 -0.20307,-3.69521 -0.4611,-5.03619 z m 94.86687,-9.70229 c -0.25787,-1.34098 -1.41727,-0.24169 -1.42925,2.12998 -0.0118,2.37167 1.13764,3.21284 1.40747,2.18215 0.26983,-1.0307 0.27965,-2.97116 0.0216,-4.31213 z m 24.44191,78.46593 c -0.83591,-2.17836 0.40728,-3.82474 2.88816,-3.82474 1.51324,0 2.09235,0.746 2.09235,2.69508 0,1.99028 -0.57265,2.69508 -2.1898,2.69508 -1.20449,0 -2.46029,-0.70443 -2.79071,-1.56542 z m 12.58398,-9.68502 c -1.89636,-2.28501 0.41461,-5.99808 3.73334,-5.99808 1.8969,0 2.82207,0.73886 3.29759,2.63381 0.36362,1.4486 0.34422,3.14651 -0.0431,3.77311 -1.0238,1.65652 -5.49064,1.39518 -6.98791,-0.40884 z M 130.68243,380.05062 c -13.02516,-4.24869 -20.57248,-9.25447 -34.567321,-22.92687 -13.378661,-13.07043 -22.668043,-28.9206 -29.465134,-50.27545 -6.415103,-20.15473 -6.860124,-25.48325 -6.277487,-75.16427 0.573659,-48.91707 1.033959,-53.50676 8.486947,-84.62556 7.326482,-30.5906 22.332214,-66.021865 35.176915,-83.059093 7.14882,-9.482207 24.27504,-26.560909 31.29,-31.203198 8.83012,-5.843497 25.82396,-7.719807 34.45147,-3.803831 9.40309,4.268009 26.13889,23.973739 27.77717,32.706503 0.8113,4.324626 -2.56041,18.057646 -7.70669,31.389285 -7.32151,18.966734 -12.65865,25.389884 -21.1041,25.398444 -4.66883,0.005 -7.34224,-2.93181 -7.33011,-8.05158 0.005,-1.79506 1.69867,-10.2979 3.76538,-18.895207 4.09445,-17.032561 4.68078,-25.925745 2.11425,-32.06832 -1.98424,-4.74897 -3.18048,-5.624586 -7.71381,-5.646319 -4.71135,-0.02259 -8.00575,3.186413 -13.81707,13.458898 -9.58288,16.939345 -16.81687,39.110418 -25.21494,77.279858 -13.03525,59.24563 -15.19426,92.61364 -8.72812,134.89439 2.95897,19.34811 5.4227,28.75733 10.87197,41.52091 7.97661,18.68334 14.61769,28.28415 21.02814,30.3998 5.30547,1.75097 16.83497,0.42848 23.85104,-2.73584 11.95954,-5.39385 25.78801,-17.09308 29.93314,-25.32417 8.11137,-16.10691 11.14067,-30.09617 12.02281,-55.52087 0.63108,-18.18926 0.49562,-20.27624 -2.16298,-33.32171 -4.44494,-21.81081 -3.52544,-27.85664 4.23669,-27.85664 7.91705,0 17.92255,15.41295 21.1695,32.61048 1.63234,8.64573 0.3979,56.28177 -1.77393,68.45507 -2.28142,12.78745 -4.22044,18.6098 -9.88918,29.69441 -5.26394,10.2931 -10.48296,16.86402 -20.86374,26.26818 -17.30044,15.67283 -48.93192,23.13166 -69.56081,16.4027 z m -41.357634,-249.34768 0.888934,-5.46255 -3.900278,5.58028 c -3.0675,0.66093 -4.50489,6.41027 -3.793677,10.2413 l 1.313355,7.07453 3.146091,-6.22685 c 1.644453,-3.25476 3.162326,-9.26601 2.345575,-11.20671 z m 14.604214,6.99012 c -0.34413,-0.85998 0.55872,0.3112 -0.65131,0.65132 -3.18434,0.89506 0.20798,3.94528 0.56621,3.58706 0.35822,-0.35823 0.39651,-3.46018 0.0851,-4.23838 z m 18.44291,-44.812281 c 0,-2.752515 -2.71464,-3.878987 -4.09089,-2.736786 -0.88938,0.738114 -3.24617,6.176268 -3.24617,7.95502 0,2.752527 2.23194,3.637637 3.6082,2.495437 0.88938,-0.738116 3.72886,-5.93492 3.72886,-7.713671 z M 225.69357,359.41812 c -0.89013,-2.31963 1.55637,-7.13786 3.43598,-6.76696 0.86834,0.17134 2.11593,1.19088 2.7724,2.26564 0.97168,1.59082 0.72045,2.34236 -1.35143,4.04262 -3.06456,2.51489 -4.03283,2.60634 -4.85695,0.4587 z m 11.91621,-19.54902 c -0.40763,-0.40763 -0.74114,-2.15122 -0.74114,-3.87463 0,-2.40397 0.4392,-3.04888 1.88656,-2.77015 1.28003,0.24652 1.88656,1.36944 1.88656,3.49282 0,3.04707 -1.538,4.64594 -3.03198,3.15196 z m 115.32704,-19.42705 c -2.41153,-2.41152 1.95128,-8.76641 5.17033,-7.53114 2.36977,0.90938 2.07677,5.79337 -0.42799,7.13387 -2.41863,1.29441 -3.73493,1.40468 -4.74234,0.39727 z m 407.46582,-1.9764 c -0.82114,-2.13973 0.16537,-4.53431 2.18755,-5.31031 2.46007,-0.94403 3.59243,0.24015 3.59243,3.75689 0,2.62536 -0.44351,3.17047 -2.57974,3.17047 -1.41879,0 -2.85894,-0.72767 -3.20024,-1.61705 z m -325.176,-2.40105 c -0.88938,-0.33758 -3.67492,-2.01782 -6.19008,-3.73387 -3.58222,-2.44408 -5.49549,-5.03709 -8.83058,-11.96799 -4.43113,-9.20863 -10.36903,-27.62905 -13.53801,-41.99741 -1.01347,-4.59511 -2.18163,-8.35475 -2.59593,-8.35475 -0.41428,0 -1.39558,1.77632 -2.18064,3.94737 -1.99353,5.51302 -19.97381,23.33543 -25.50037,25.27648 -2.38804,0.83873 -8.45328,1.48525 -13.93159,1.48502 -7.99187,-3.3e-4 -10.50472,-0.42781 -14.25397,-2.42486 -7.73253,-4.11877 -12.0121,-8.7378 -16.34445,-17.64096 l -4.13097,-8.48934 -5.13081,12.39029 c -5.98693,14.45775 -10.83365,20.64484 -19.48997,24.87998 -5.6594,2.76889 -6.19518,2.836 -12.59263,1.57738 -3.67495,-0.72301 -8.93311,-2.45542 -11.6848,-3.84981 -12.33349,-6.24985 -25.44715,-27.0701 -29.76191,-47.25231 -2.09296,-9.78978 -1.33119,-45.0624 1.19493,-55.32899 1.80147,-7.32152 7.66167,-20.89171 14.80718,-34.28826 5.68945,-10.66672 22.77337,-28.47333 30.66824,-31.96561 5.16657,-2.28542 14.17337,-2.97046 20.48726,-1.55821 3.33434,0.74579 3.36241,0.71513 4.04749,-4.42325 1.4093,-10.57013 8.27348,-17.065774 16.85064,-15.945943 6.98606,0.91212 17.69086,6.420123 21.55318,11.089873 1.81685,2.19668 4.62254,7.87488 6.23486,12.61822 l 2.9315,8.62426 0.002,62.56832 c 0.002,58.07917 0.13935,62.77797 1.91361,65.49048 5.23417,8.00196 13.19434,-0.9497 25.20178,-28.34078 l 3.07176,-7.00721 0.53902,-85.70359 0.53902,-85.703598 3.13099,-6.179166 c 1.72204,-3.398542 5.42229,-8.734803 8.22276,-11.858359 l 5.09177,-5.679192 9.58587,0.02149 c 8.45653,0.01895 10.17326,0.365729 14.5718,2.943448 6.48899,3.802796 9.8976,7.968842 12.77545,15.614312 4.23063,11.239149 5.52158,19.708359 6.13056,40.217932 0.78512,26.440743 -0.30229,34.107323 -7.20268,50.780553 -2.97666,7.1924 -5.41211,13.25257 -5.41211,13.46704 0,1.67872 4.36029,-0.73333 12.93636,-7.15627 5.54185,-4.15042 10.41768,-7.54622 10.8352,-7.54622 0.41753,0 1.36652,0.73177 2.10885,1.62616 2.13579,2.57355 0.55918,8.43955 -4.11227,15.29944 -5.13628,7.54263 -7.14951,9.43235 -12.37484,11.61561 -2.20166,0.91995 -4.00313,1.88849 -4.00313,2.15231 0,0.26383 3.56749,5.78269 7.9277,12.26414 12.85177,19.1041 20.36663,39.7625 22.50901,61.87817 3.44431,35.5538 -6.7679,60.90757 -29.89769,74.2274 -5.23935,3.0172 -12.31524,4.00822 -16.70951,2.34027 z m 23.64866,-31.45089 c 5.84509,-9.10884 7.94758,-16.56199 8.46083,-29.99389 0.75602,-19.78327 -2.64711,-33.17104 -14.18852,-55.81579 -6.563,-12.87706 -6.59492,-12.9166 -6.95715,-8.62425 -0.20014,2.37167 -0.14898,19.59323 0.1137,38.27015 0.39777,28.28333 0.84829,35.93967 2.69597,45.81639 2.56178,13.69386 3.19333,15.63147 5.09507,15.63147 0.76411,0 2.91511,-2.37784 4.7801,-5.28408 z M 305.58939,268.06763 c 1.86104,-1.92698 4.98816,-6.89941 6.94918,-11.04983 l 3.56546,-7.54623 0.35599,-31.80196 c 0.19578,-17.49108 -0.14243,-39.76496 -0.75159,-49.49751 l -1.10757,-17.69552 -3.92428,-5.69788 c -5.96247,-8.65725 -6.65454,-8.9789 -8.71572,-4.05083 -5.86818,14.03026 -11.08791,46.00028 -11.9462,73.16862 -1.03823,32.86425 3.38026,57.67475 10.27128,57.67475 1.05586,0 3.44241,-1.57662 5.30345,-3.50361 z m -38.12791,-93.93436 c 2.11259,-2.83403 3.95566,-9.07494 -1.46243,-3.49945 -2.52875,2.60221 -3.74349,10.26668 -2.37016,9.47557 0.49172,-0.28325 3.22843,-4.27645 3.83255,-5.85545 z m 86.88684,-11.86167 c 0,-2.37168 -1.23312,-6.24896 -2.13019,-7.12789 -1.32985,-1.30295 -2.73358,0.56384 -2.73358,6.94688 0,6.38303 1.70931,8.62224 2.73358,7.06755 0.89707,-1.36162 2.13019,-4.51487 2.13019,-6.88654 z M 447.05669,85.867459 C 446.4257,66.977544 443.511,62.499285 440.86263,61.616488 c -0.94035,-0.313448 -1.32386,1.290432 -1.32386,5.536503 0,5.810387 3.83372,38.662439 4.82726,41.365819 1.53398,4.17394 3.26174,-5.5546 2.69066,-22.651351 z m -17.85955,9.322967 c -1.60968,-2.29814 -3.0203,-1.898724 -3.0067,0.06679 0.008,1.169538 0.50367,3.828463 0.89269,5.282954 0.69707,2.60634 1.66065,2.95286 2.66536,0.7012 0.74139,-1.661515 0.71512,-4.242814 -0.55135,-6.05094 z M 415.77753,69.682592 c -0.0503,-6.27282 -1.33525,-9.892103 -2.53819,-8.897988 -4.57008,3.776717 -2.65455,19.016798 1.00607,18.928088 0.22723,-0.0055 1.5738,-4.842064 1.53212,-10.0301 z M 334.49172,303.67234 c -2.56253,-3.65852 -2.18238,-10.06503 0.71776,-12.09637 5.44352,-3.81279 12.69652,-0.92437 12.69652,5.05624 0,4.25386 -1.04861,6.13139 -4.38923,7.8589 -4.2878,2.2173 -7.07566,1.96438 -9.02505,-0.81877 z m 415.14849,-1.73157 c -2.2049,-2.43637 -2.2297,-3.74222 -0.14748,-7.76876 3.12209,-6.03747 10.60127,-5.16146 11.57333,1.35555 0.89402,5.99324 -0.66601,8.38466 -5.46993,8.38466 -2.67245,0 -4.81299,-0.70855 -5.95592,-1.97145 z m 22.65129,1.25275 c -1.42709,-1.42708 -0.67689,-5.69516 1.16784,-6.64393 3.00987,-1.54802 4.58164,-0.28576 4.58164,3.67934 0,3.13999 -0.37095,3.68329 -2.51537,3.68329 -1.38345,0 -2.83879,-0.32341 -3.23411,-0.7187 z M 375.66534,298.4357 c -2.57477,-1.49966 -2.37701,-5.55693 0.35398,-7.26245 1.72981,-1.08028 2.5899,-1.1093 3.77311,-0.12732 1.8699,1.55188 1.99982,5.49964 0.23894,7.26052 -1.54471,1.54471 -1.91692,1.55572 -4.36603,0.12925 z m 275.61474,-33.07966 c -5.69093,-3.85185 -2.28478,-13.18939 4.81126,-13.18939 4.62487,0 7.3566,8.79185 3.8281,12.32037 -1.75925,1.75925 -6.60414,2.24659 -8.63936,0.86902 z m -41.98624,-10.39655 c -1.35045,-2.06104 -1.41847,-3.0503 -0.36815,-5.35551 1.65866,-3.64041 4.98633,-3.67277 6.3592,-0.0619 2.04374,5.37548 -3.01892,9.95337 -5.99105,5.41733 z m 27.57413,-7.58465 c -1.96278,-2.36503 -0.9657,-6.4736 1.66211,-6.84906 3.39289,-0.48476 5.36278,2.44623 3.86044,5.74361 -1.36253,2.99047 -3.58834,3.436 -5.52255,1.10545 z m -101.92334,-7.07237 c -13.93261,-1.74406 -16.56441,-2.93119 -24.90989,-11.23584 -11.56276,-11.50631 -19.63076,-25.75238 -22.12403,-39.06599 -1.59506,-8.51684 -0.52468,-37.6964 1.71364,-46.71529 0.95643,-3.85397 4.48062,-12.58603 7.83147,-19.40458 5.30446,-10.79416 7.22132,-13.51266 14.82187,-21.02163 16.28186,-16.08567 27.59947,-20.08733 39.85422,-14.09162 10.83283,5.299976 13.67345,14.95531 10.81515,36.75996 -2.95068,22.50889 -9.30731,33.49086 -23.69031,40.92832 l -8.62426,4.45962 0.10242,5.32005 c 0.19135,9.90038 7.57792,24.24534 18.63573,36.19119 4.55716,4.92312 5.57095,5.47686 11.98546,6.54634 5.27341,0.87924 9.00782,0.83446 15.09246,-0.18092 7.78102,-1.29845 8.31637,-1.58463 14.22647,-7.60528 8.53392,-8.69358 15.34429,-23.30591 21.34688,-45.80178 2.53133,-9.48669 5.05812,-17.82607 5.61504,-18.53198 1.48121,-1.87756 3.92857,-0.53663 5.86902,3.21567 3.41693,6.60776 -0.99459,32.12988 -8.82822,51.07397 -4.09491,9.90284 -12.49278,21.60067 -19.15503,26.68225 -12.65545,9.65273 -39.30108,15.14103 -60.57842,12.47754 z m -27.3603,-96.10975 c -0.0108,-7.9314 -1.39868,-7.84279 -2.82462,-4.14146 -1.58535,4.11672 -2.04254,11.65102 -0.88949,14.65596 1.28125,3.33898 3.721,-1.56329 3.71411,-10.5145 z m 27.3798,8.31725 c 4.28713,-1.79129 10.89156,-8.46921 13.70586,-16.85535 3.35226,-9.98904 0.15236,-27.89027 -4.10188,-27.89027 -2.23066,0 -8.75697,8.30303 -9.45391,11.56831 -0.34411,1.61208 -1.81271,8.26732 -3.26364,14.78942 -4.12315,18.53408 -5.13967,20.45558 -3.16363,20.45558 0.9353,0 4.22938,-1.21204 6.2772,-2.06769 z m -13.95555,-26.32951 0.59658,-3.91674 -3.21883,1.64485 c -2.31581,1.1834 -2.70513,3.67269 -2.08085,6.07281 0.71852,2.76222 2.24054,2.85116 2.96347,0.9066 0.44091,-1.18583 1.46435,-2.90023 1.73963,-4.70752 z M 33.709257,218.80263 c -1.485338,-1.64129 -1.600979,-2.47582 -0.601757,-4.34286 1.785278,-3.33583 5.839744,-2.52783 6.276276,1.25077 0.465737,4.03137 -3.077294,5.96199 -5.674519,3.09209 z M 21.96822,198.44964 c -2.732985,-3.01991 -2.37082,-10.43175 0.611806,-12.52087 3.044741,-2.13262 7.72191,-2.1583 9.46999,-0.0519 1.642826,1.97948 0.796705,8.30511 -1.6002,11.96326 -2.026158,3.0923 -5.977768,3.37632 -8.481596,0.60962 z m 25.7084,0.89778 c -0.987267,-1.59744 1.935356,-7.01158 3.784935,-7.01158 2.030167,0 2.724276,4.4671 1.014266,6.52753 -1.495246,1.80166 -3.838791,2.03803 -4.799201,0.48405 z M 530.39533,68.905513 c -2.81237,-1.162288 -4.03896,-5.110879 -3.19788,-10.294314 1.25386,-7.726493 26.59302,-41.455659 31.14372,-41.455659 2.41975,0 8.40542,7.143281 8.40542,10.030979 0,3.53052 -4.05987,17.589362 -6.40934,22.194706 -2.8032,5.494729 -17.7429,19.515939 -20.81422,19.534599 -1.33223,0.0085 -3.39257,0.23163 -4.5784,0.496757 -1.18584,0.265127 -3.23303,0.037 -4.5493,-0.507068 z"
       id="path8096"
       sodipodi:nodetypes="sssssssssssssssssscssssssssssssssssssssssscscssscssssssssscsssssssssssssssssssscsssscsscssssssssssssssscssssssssscssssssscsssssssssssssssssssssssssssssssssssssssssssssssssccsssssscsscsssssscsssssssssssssssssssssssssssssssssssssssssscsscsscscssssssssssscsscscsssccsccscccsccccsccsssssssssssssssssssssccsssssssssssssssssssccscsssssssssssssssssssssssssssssscssssssssscsssssssssssssccsscccsscsssssssscsssscscccsssssscsscsscssssscssccssssssssssccssscsscsssssssssssssssssssssssssssssscssccsscssssccsssssscsscccsscscssssscsssscscsscscsccscssccssscscc" />
  </g>
</svg>
